<svg width="775" height="707" viewBox="0 0 775 707" fill="none" xmlns="http://www.w3.org/2000/svg">
<g filter="url(#filter0_d)">
<path d="M277.864 79.4164C217.616 99.2056 233.254 191.567 244.267 232.671C149.431 313.515 137.286 343.657 146.189 353.72L160.298 376.871C167.34 384.858 195.635 389.655 197.203 389.235C235.028 435.532 349.345 346.19 349.915 348.316C471.698 401.363 420.704 445.231 387.81 489.744C387.81 489.744 524.602 524.611 586.97 423.782C649.337 322.952 615.161 287.546 615.161 287.546C598.808 221.289 521.55 113.328 472.467 68.1451C411.112 11.6668 353.173 54.6799 277.864 79.4164Z" fill="#E2AC6E"/>
<path d="M157.015 319.895C162.642 325.744 169.228 355.38 154.991 368.456C136.853 359.256 142.986 323.654 157.015 319.895Z" fill="#8B4E14" stroke="black" stroke-opacity="0.34" stroke-width="0.995809"/>
<path d="M397.753 41.5516C412.41 144.579 467.69 338.821 603.996 285.445C573.327 213.216 476.654 32.6678 397.753 41.5516Z" fill="#8B4E14" stroke="black" stroke-width="0.995809"/>
<path d="M294.105 224.111C281.325 245.198 263.433 286.605 294.105 283.538C324.778 280.471 306.885 242.642 294.105 224.111Z" fill="#A1B0E3"/>
<g filter="url(#filter1_f)">
<ellipse cx="289.205" cy="268.076" rx="4.5034" ry="4.82814" fill="white" fill-opacity="0.4"/>
</g>
<path d="M258.831 219.954C264.532 195.722 291.628 155.303 354.398 187.493C342.106 201.127 305.783 226.708 258.831 219.954Z" fill="black" fill-opacity="0.21"/>
<path d="M267.998 215.118C272.545 195.793 294.153 163.559 344.212 189.231C334.409 200.104 305.442 220.504 267.998 215.118Z" fill="white"/>
<ellipse rx="11.2723" ry="10.5761" transform="matrix(0.9964 -0.0438954 0.0759615 0.999402 289.205 202.455)" fill="#35095A"/>
</g>
<path d="M85.1287 555.577C85.8591 555.577 86.5895 555.604 87.3198 555.659C88.0684 555.714 88.744 555.869 89.3466 556.125C89.9491 556.38 90.433 556.773 90.7982 557.303C91.1816 557.814 91.3733 558.535 91.3733 559.466C91.3733 560.379 91.1816 561.1 90.7982 561.63C90.433 562.141 89.9491 562.525 89.3466 562.78C88.744 563.036 88.0684 563.2 87.3198 563.273C86.5895 563.328 85.8591 563.355 85.1287 563.355H82.3351V587.677C82.3351 588.462 82.3077 589.229 82.2529 589.977C82.2164 590.726 82.0703 591.392 81.8147 591.977C81.5591 592.561 81.1482 593.036 80.5822 593.401C80.0162 593.748 79.2128 593.921 78.172 593.921C77.1312 593.921 76.3278 593.748 75.7618 593.401C75.1957 593.036 74.7849 592.561 74.5293 591.977C74.2737 591.392 74.1185 590.726 74.0637 589.977C74.0272 589.229 74.0089 588.462 74.0089 587.677V563.355H71.2153C70.4849 563.355 69.7454 563.328 68.9968 563.273C68.2664 563.2 67.5999 563.036 66.9974 562.78C66.3948 562.525 65.9018 562.141 65.5184 561.63C65.1532 561.1 64.9706 560.379 64.9706 559.466C64.9706 558.535 65.1532 557.814 65.5184 557.303C65.9018 556.773 66.3948 556.38 66.9974 556.125C67.5999 555.869 68.2664 555.714 68.9968 555.659C69.7454 555.604 70.4849 555.577 71.2153 555.577H85.1287ZM117.776 587.731C117.776 588.498 117.73 589.256 117.639 590.005C117.566 590.735 117.383 591.392 117.091 591.977C116.817 592.561 116.407 593.036 115.859 593.401C115.311 593.748 114.562 593.921 113.613 593.921C112.663 593.921 111.906 593.748 111.34 593.401C110.792 593.036 110.363 592.561 110.052 591.977C109.76 591.392 109.569 590.735 109.477 590.005C109.386 589.256 109.34 588.498 109.34 587.731V576.94C109.34 576.466 109.322 576 109.286 575.543C109.249 575.069 109.149 574.649 108.984 574.284C108.82 573.918 108.573 573.626 108.245 573.407C107.934 573.17 107.496 573.051 106.93 573.051C106.2 573.051 105.606 573.298 105.15 573.791C104.693 574.265 104.328 574.932 104.054 575.79C103.799 576.63 103.616 577.634 103.507 578.803C103.415 579.953 103.37 581.195 103.37 582.528V587.731C103.37 588.498 103.324 589.256 103.233 590.005C103.16 590.735 102.977 591.392 102.685 591.977C102.393 592.561 101.964 593.036 101.398 593.401C100.832 593.748 100.065 593.921 99.097 593.921C98.1475 593.921 97.3989 593.748 96.8511 593.401C96.3033 593.036 95.8833 592.561 95.5912 591.977C95.3173 591.392 95.1347 590.735 95.0434 590.005C94.9704 589.256 94.9339 588.498 94.9339 587.731V561.767C94.9339 561 94.9704 560.251 95.0434 559.521C95.1347 558.772 95.3173 558.106 95.5912 557.522C95.8833 556.937 96.3033 556.472 96.8511 556.125C97.3989 555.76 98.1475 555.577 99.097 555.577C100.065 555.577 100.832 555.76 101.398 556.125C101.964 556.472 102.393 556.937 102.685 557.522C102.977 558.106 103.16 558.772 103.233 559.521C103.324 560.251 103.37 561 103.37 561.767V571.134C103.534 570.604 103.771 570.066 104.082 569.518C104.392 568.97 104.794 568.477 105.287 568.039C105.78 567.601 106.355 567.245 107.012 566.971C107.688 566.679 108.464 566.533 109.34 566.533C110.345 566.533 111.349 566.706 112.353 567.053C113.376 567.382 114.279 567.929 115.065 568.696C115.868 569.463 116.516 570.477 117.009 571.736C117.52 572.978 117.776 574.512 117.776 576.338V587.731ZM145.767 578.31C145.767 578.602 145.749 578.949 145.713 579.35C145.676 579.734 145.53 580.108 145.274 580.473C145.037 580.82 144.654 581.122 144.124 581.377C143.594 581.633 142.846 581.761 141.878 581.761H130.977V584.39C130.977 584.828 131.032 585.285 131.142 585.759C131.251 586.234 131.434 586.672 131.69 587.074C131.963 587.476 132.319 587.804 132.758 588.06C133.196 588.316 133.735 588.444 134.374 588.444C135.104 588.444 135.661 588.361 136.044 588.197C136.446 588.014 136.756 587.795 136.976 587.54C137.213 587.284 137.423 587.01 137.605 586.718C137.788 586.426 138.025 586.152 138.318 585.896C138.628 585.641 139.048 585.431 139.577 585.266C140.125 585.084 140.874 584.993 141.823 584.993C142.28 584.993 142.718 585.029 143.138 585.102C143.576 585.175 143.96 585.312 144.288 585.513C144.617 585.714 144.882 585.997 145.083 586.362C145.283 586.709 145.384 587.165 145.384 587.731C145.384 588.918 145.01 589.913 144.261 590.717C143.512 591.502 142.572 592.132 141.44 592.607C140.308 593.081 139.075 593.419 137.742 593.62C136.428 593.821 135.195 593.921 134.045 593.921C132.529 593.903 131.087 593.711 129.718 593.346C128.348 592.981 127.134 592.397 126.075 591.593C125.034 590.79 124.203 589.74 123.582 588.444C122.962 587.147 122.651 585.559 122.651 583.678V577.269C122.651 575.534 122.852 574.064 123.254 572.859C123.674 571.654 124.212 570.65 124.87 569.847C125.527 569.043 126.267 568.422 127.088 567.984C127.91 567.528 128.741 567.19 129.581 566.971C130.421 566.752 131.215 566.615 131.963 566.56C132.73 566.505 133.388 566.478 133.935 566.478C135.78 566.478 137.35 566.642 138.646 566.971C139.961 567.299 141.056 567.729 141.933 568.258C142.809 568.788 143.503 569.399 144.014 570.093C144.526 570.787 144.909 571.508 145.165 572.257C145.42 572.987 145.585 573.736 145.658 574.503C145.731 575.251 145.767 575.954 145.767 576.612V578.31ZM130.977 577.652H137.825C137.825 576.794 137.797 576.036 137.742 575.379C137.706 574.704 137.569 574.137 137.332 573.681C137.112 573.225 136.756 572.878 136.263 572.64C135.789 572.403 135.104 572.284 134.209 572.284C133.461 572.284 132.867 572.403 132.429 572.64C132.009 572.878 131.69 573.179 131.47 573.544C131.251 573.891 131.114 574.265 131.06 574.667C131.005 575.069 130.977 575.425 130.977 575.735V577.652ZM169.157 570.641C169.157 572.065 168.801 573.106 168.089 573.763C167.395 574.421 166.4 574.749 165.104 574.749C164.921 574.749 164.656 574.767 164.309 574.804C163.981 574.822 163.625 574.895 163.241 575.023C162.858 575.133 162.465 575.306 162.064 575.543C161.68 575.763 161.324 576.073 160.995 576.475C160.667 576.858 160.402 577.351 160.201 577.954C160 578.556 159.9 579.277 159.9 580.117V587.951C159.9 588.699 159.854 589.43 159.763 590.142C159.69 590.854 159.507 591.493 159.215 592.059C158.923 592.607 158.503 593.054 157.955 593.401C157.408 593.748 156.668 593.921 155.737 593.921C154.824 593.921 154.103 593.748 153.573 593.401C153.044 593.054 152.633 592.607 152.341 592.059C152.067 591.493 151.884 590.854 151.793 590.142C151.72 589.43 151.683 588.699 151.683 587.951V572.613C151.683 571.846 151.72 571.106 151.793 570.394C151.884 569.664 152.067 569.016 152.341 568.45C152.633 567.884 153.044 567.436 153.573 567.108C154.103 566.761 154.824 566.587 155.737 566.587C156.668 566.587 157.38 566.797 157.873 567.217C158.384 567.619 158.759 568.148 158.996 568.806C159.233 569.445 159.37 570.166 159.407 570.97C159.443 571.755 159.462 572.522 159.462 573.27H159.9C160.156 572.248 160.493 571.326 160.913 570.504C161.333 569.664 161.799 568.961 162.31 568.395C162.821 567.811 163.369 567.363 163.953 567.053C164.538 566.743 165.122 566.587 165.706 566.587C166.418 566.587 166.994 566.67 167.432 566.834C167.888 566.98 168.244 567.217 168.5 567.546C168.756 567.875 168.929 568.295 169.02 568.806C169.112 569.317 169.157 569.929 169.157 570.641ZM195.396 578.31C195.396 578.602 195.377 578.949 195.341 579.35C195.304 579.734 195.158 580.108 194.903 580.473C194.665 580.82 194.282 581.122 193.752 581.377C193.223 581.633 192.474 581.761 191.506 581.761H180.606V584.39C180.606 584.828 180.661 585.285 180.77 585.759C180.88 586.234 181.062 586.672 181.318 587.074C181.592 587.476 181.948 587.804 182.386 588.06C182.824 588.316 183.363 588.444 184.002 588.444C184.732 588.444 185.289 588.361 185.673 588.197C186.074 588.014 186.385 587.795 186.604 587.54C186.841 587.284 187.051 587.01 187.234 586.718C187.416 586.426 187.654 586.152 187.946 585.896C188.256 585.641 188.676 585.431 189.206 585.266C189.754 585.084 190.502 584.993 191.452 584.993C191.908 584.993 192.346 585.029 192.766 585.102C193.205 585.175 193.588 585.312 193.917 585.513C194.245 585.714 194.51 585.997 194.711 586.362C194.912 586.709 195.012 587.165 195.012 587.731C195.012 588.918 194.638 589.913 193.889 590.717C193.141 591.502 192.2 592.132 191.068 592.607C189.936 593.081 188.704 593.419 187.371 593.62C186.056 593.821 184.824 593.921 183.673 593.921C182.158 593.903 180.715 593.711 179.346 593.346C177.976 592.981 176.762 592.397 175.703 591.593C174.662 590.79 173.832 589.74 173.211 588.444C172.59 587.147 172.28 585.559 172.28 583.678V577.269C172.28 575.534 172.48 574.064 172.882 572.859C173.302 571.654 173.841 570.65 174.498 569.847C175.155 569.043 175.895 568.422 176.717 567.984C177.538 567.528 178.369 567.19 179.209 566.971C180.049 566.752 180.843 566.615 181.592 566.56C182.359 566.505 183.016 566.478 183.564 566.478C185.408 566.478 186.978 566.642 188.275 566.971C189.589 567.299 190.685 567.729 191.561 568.258C192.438 568.788 193.132 569.399 193.643 570.093C194.154 570.787 194.537 571.508 194.793 572.257C195.049 572.987 195.213 573.736 195.286 574.503C195.359 575.251 195.396 575.954 195.396 576.612V578.31ZM180.606 577.652H187.453C187.453 576.794 187.426 576.036 187.371 575.379C187.334 574.704 187.197 574.137 186.96 573.681C186.741 573.225 186.385 572.878 185.892 572.64C185.417 572.403 184.732 572.284 183.838 572.284C183.089 572.284 182.496 572.403 182.057 572.64C181.637 572.878 181.318 573.179 181.099 573.544C180.88 573.891 180.743 574.265 180.688 574.667C180.633 575.069 180.606 575.425 180.606 575.735V577.652ZM211.336 560.069C211.336 560.964 211.235 561.94 211.035 562.999C210.834 564.04 210.523 565.017 210.103 565.93C209.702 566.825 209.181 567.582 208.542 568.203C207.921 568.806 207.191 569.107 206.351 569.107C206.041 569.107 205.739 568.998 205.447 568.778C205.173 568.559 205.036 568.212 205.036 567.738V567.519C205.055 567.336 205.109 567.153 205.201 566.971C205.292 566.77 205.393 566.578 205.502 566.396C205.612 566.213 205.703 566.03 205.776 565.848C205.867 565.665 205.913 565.474 205.913 565.273C205.913 565.072 205.822 564.907 205.639 564.78C205.456 564.652 205.228 564.515 204.954 564.369C204.699 564.223 204.416 564.058 204.105 563.876C203.795 563.675 203.503 563.419 203.229 563.109C202.973 562.78 202.754 562.379 202.571 561.904C202.389 561.411 202.298 560.799 202.298 560.069C202.298 558.499 202.69 557.357 203.475 556.645C204.26 555.933 205.383 555.577 206.844 555.577C208.36 555.577 209.483 555.933 210.213 556.645C210.962 557.357 211.336 558.499 211.336 560.069ZM227.276 573.708C227.276 574.074 227.395 574.411 227.632 574.722C227.87 575.032 228.189 575.333 228.591 575.626C229.011 575.899 229.485 576.173 230.015 576.447C230.563 576.721 231.129 576.995 231.713 577.269C232.608 577.707 233.521 578.182 234.452 578.693C235.383 579.186 236.232 579.77 236.999 580.446C237.766 581.122 238.387 581.907 238.862 582.801C239.354 583.678 239.601 584.719 239.601 585.924C239.601 587.019 239.437 587.987 239.108 588.827C238.798 589.667 238.378 590.397 237.848 591.018C237.319 591.621 236.698 592.123 235.986 592.524C235.292 592.926 234.552 593.246 233.767 593.483C233 593.72 232.215 593.885 231.412 593.976C230.608 594.086 229.851 594.14 229.139 594.14C227.733 594.14 226.509 594.022 225.468 593.784C224.428 593.547 223.533 593.237 222.784 592.853C222.036 592.451 221.415 592.004 220.922 591.511C220.447 591 220.073 590.47 219.799 589.923C219.525 589.375 219.333 588.836 219.224 588.307C219.114 587.759 219.059 587.257 219.059 586.8C219.059 585.705 219.361 584.901 219.963 584.39C220.584 583.879 221.524 583.623 222.784 583.623C223.697 583.623 224.446 583.87 225.03 584.363C225.614 584.856 225.925 585.65 225.961 586.745C225.98 587.111 226.08 587.403 226.263 587.622C226.464 587.841 226.71 588.024 227.002 588.17C227.313 588.297 227.65 588.389 228.016 588.444C228.381 588.48 228.737 588.498 229.084 588.498C229.796 588.498 230.371 588.316 230.809 587.951C231.266 587.567 231.494 587.074 231.494 586.472C231.494 585.96 231.339 585.486 231.028 585.047C230.736 584.591 230.344 584.171 229.851 583.787C229.358 583.404 228.792 583.039 228.153 582.692C227.532 582.327 226.893 581.962 226.235 581.596C225.414 581.158 224.583 580.693 223.743 580.2C222.921 579.707 222.173 579.159 221.497 578.556C220.821 577.954 220.274 577.278 219.854 576.529C219.434 575.763 219.224 574.895 219.224 573.928C219.224 572.503 219.452 571.316 219.909 570.367C220.383 569.399 221.068 568.623 221.963 568.039C222.857 567.436 223.944 567.007 225.222 566.752C226.518 566.496 227.988 566.35 229.632 566.313H230.07C231.549 566.313 232.799 566.441 233.822 566.697C234.863 566.953 235.721 567.29 236.397 567.71C237.09 568.112 237.629 568.568 238.012 569.08C238.414 569.591 238.706 570.111 238.889 570.641C239.09 571.152 239.208 571.645 239.245 572.12C239.3 572.595 239.327 572.996 239.327 573.325C239.327 573.873 239.208 574.329 238.971 574.694C238.752 575.041 238.451 575.324 238.067 575.543C237.702 575.744 237.282 575.89 236.807 575.982C236.333 576.055 235.84 576.1 235.328 576.119C234.89 576.119 234.488 576.046 234.123 575.899C233.776 575.753 233.475 575.571 233.219 575.352C232.964 575.133 232.763 574.886 232.617 574.612C232.489 574.338 232.425 574.074 232.425 573.818C232.389 573.124 232.106 572.595 231.576 572.229C231.065 571.864 230.435 571.682 229.686 571.682C229.376 571.682 229.075 571.718 228.782 571.791C228.509 571.846 228.253 571.956 228.016 572.12C227.796 572.266 227.614 572.467 227.468 572.722C227.34 572.978 227.276 573.307 227.276 573.708ZM289.941 587.677C289.941 588.462 289.896 589.229 289.804 589.977C289.713 590.726 289.512 591.392 289.202 591.977C288.91 592.561 288.481 593.036 287.915 593.401C287.367 593.748 286.618 593.921 285.669 593.921C284.738 593.921 283.998 593.748 283.45 593.401C282.903 593.036 282.483 592.561 282.19 591.977C281.898 591.392 281.707 590.726 281.615 589.977C281.542 589.229 281.506 588.462 281.506 587.677V576.995C281.506 576.484 281.478 575.982 281.424 575.489C281.387 574.996 281.287 574.567 281.122 574.201C280.958 573.818 280.711 573.517 280.383 573.298C280.072 573.06 279.643 572.942 279.096 572.942C278.347 572.942 277.744 573.188 277.288 573.681C276.831 574.174 276.466 574.85 276.192 575.708C275.937 576.566 275.763 577.579 275.672 578.748C275.581 579.898 275.535 581.14 275.535 582.473V587.677C275.535 588.462 275.489 589.229 275.398 589.977C275.307 590.726 275.106 591.392 274.795 591.977C274.503 592.561 274.074 593.036 273.508 593.401C272.96 593.748 272.212 593.921 271.262 593.921C270.331 593.921 269.592 593.748 269.044 593.401C268.496 593.036 268.076 592.561 267.784 591.977C267.492 591.392 267.3 590.726 267.209 589.977C267.136 589.229 267.099 588.462 267.099 587.677V572.722C267.099 571.937 267.127 571.18 267.181 570.449C267.236 569.701 267.401 569.043 267.674 568.477C267.948 567.893 268.359 567.427 268.907 567.08C269.473 566.715 270.258 566.533 271.262 566.533C272.267 566.533 273.052 566.706 273.618 567.053C274.184 567.382 274.604 567.783 274.878 568.258C275.17 568.733 275.352 569.235 275.425 569.764C275.498 570.294 275.535 570.75 275.535 571.134C275.681 570.604 275.909 570.066 276.22 569.518C276.53 568.97 276.923 568.477 277.397 568.039C277.89 567.601 278.475 567.245 279.15 566.971C279.826 566.679 280.611 566.533 281.506 566.533C282.51 566.533 283.514 566.697 284.518 567.026C285.523 567.354 286.427 567.902 287.23 568.669C288.033 569.436 288.682 570.44 289.175 571.682C289.686 572.923 289.941 574.457 289.941 576.283V587.677ZM295.255 576.831C295.255 575.151 295.483 573.727 295.94 572.558C296.396 571.389 296.98 570.413 297.692 569.627C298.423 568.842 299.226 568.231 300.103 567.792C300.997 567.354 301.874 567.026 302.732 566.806C303.59 566.587 304.384 566.45 305.115 566.396C305.863 566.341 306.448 566.313 306.868 566.313C307.288 566.313 307.863 566.341 308.593 566.396C309.324 566.45 310.1 566.587 310.921 566.806C311.761 567.026 312.601 567.354 313.441 567.792C314.299 568.231 315.066 568.842 315.742 569.627C316.435 570.413 317.001 571.389 317.44 572.558C317.878 573.727 318.097 575.151 318.097 576.831V583.623C318.097 585.303 317.878 586.727 317.44 587.896C317.001 589.064 316.435 590.041 315.742 590.826C315.066 591.611 314.299 592.223 313.441 592.661C312.601 593.1 311.761 593.428 310.921 593.647C310.1 593.866 309.324 594.003 308.593 594.058C307.863 594.113 307.288 594.14 306.868 594.14C306.448 594.14 305.863 594.113 305.115 594.058C304.384 594.003 303.59 593.866 302.732 593.647C301.874 593.428 300.997 593.1 300.103 592.661C299.226 592.223 298.423 591.611 297.692 590.826C296.98 590.041 296.396 589.064 295.94 587.896C295.483 586.727 295.255 585.303 295.255 583.623V576.831ZM303.691 585.54C303.709 586.07 303.837 586.535 304.074 586.937C304.275 587.302 304.585 587.631 305.005 587.923C305.443 588.197 306.064 588.334 306.868 588.334C307.635 588.334 308.219 588.197 308.621 587.923C309.04 587.631 309.351 587.302 309.552 586.937C309.771 586.535 309.899 586.07 309.935 585.54V575.626C309.899 575.078 309.771 574.576 309.552 574.119C309.351 573.754 309.04 573.416 308.621 573.106C308.219 572.777 307.635 572.613 306.868 572.613C306.064 572.613 305.443 572.777 305.005 573.106C304.585 573.416 304.275 573.754 304.074 574.119C303.837 574.576 303.709 575.078 303.691 575.626V585.54ZM367.013 587.731C367.013 588.498 366.986 589.256 366.931 590.005C366.876 590.735 366.712 591.392 366.438 591.977C366.164 592.561 365.753 593.036 365.206 593.401C364.658 593.748 363.891 593.921 362.905 593.921C361.901 593.921 361.116 593.757 360.55 593.428C359.983 593.081 359.564 592.671 359.29 592.196C359.016 591.703 358.842 591.192 358.769 590.662C358.714 590.132 358.687 589.685 358.687 589.32C358.523 589.849 358.285 590.388 357.975 590.936C357.683 591.484 357.299 591.977 356.825 592.415C356.35 592.853 355.775 593.218 355.099 593.51C354.442 593.784 353.666 593.921 352.771 593.921C351.767 593.921 350.763 593.757 349.758 593.428C348.754 593.1 347.85 592.552 347.047 591.785C346.243 591.018 345.586 590.023 345.075 588.8C344.582 587.558 344.335 586.033 344.335 584.226V576.283C344.335 574.457 344.582 572.932 345.075 571.709C345.586 570.467 346.243 569.472 347.047 568.724C347.85 567.957 348.754 567.409 349.758 567.08C350.763 566.752 351.767 566.587 352.771 566.587C353.666 566.587 354.442 566.724 355.099 566.998C355.775 567.272 356.35 567.628 356.825 568.066C357.299 568.505 357.683 568.998 357.975 569.545C358.285 570.093 358.523 570.641 358.687 571.189V561.822C358.687 561.037 358.724 560.27 358.797 559.521C358.888 558.754 359.071 558.088 359.344 557.522C359.637 556.937 360.057 556.472 360.604 556.125C361.17 555.76 361.937 555.577 362.905 555.577C363.818 555.577 364.548 555.76 365.096 556.125C365.644 556.472 366.055 556.937 366.329 557.522C366.621 558.088 366.803 558.754 366.876 559.521C366.968 560.27 367.013 561.037 367.013 561.822V587.731ZM352.771 583.514C352.771 584.007 352.789 584.49 352.826 584.965C352.862 585.44 352.963 585.869 353.127 586.252C353.292 586.636 353.529 586.946 353.839 587.184C354.168 587.403 354.615 587.512 355.181 587.512C355.893 587.512 356.469 587.357 356.907 587.047C357.363 586.718 357.719 586.225 357.975 585.568C358.231 584.892 358.404 584.052 358.495 583.048C358.605 582.025 358.669 580.811 358.687 579.405C358.687 578.839 358.632 578.191 358.523 577.461C358.431 576.712 358.258 576.009 358.002 575.352C357.747 574.694 357.391 574.137 356.934 573.681C356.478 573.225 355.893 572.996 355.181 572.996C354.615 572.996 354.168 573.115 353.839 573.352C353.529 573.571 353.292 573.864 353.127 574.229C352.963 574.594 352.862 575.014 352.826 575.489C352.789 575.945 352.771 576.411 352.771 576.885V583.514ZM372.162 576.831C372.162 575.151 372.391 573.727 372.847 572.558C373.304 571.389 373.888 570.413 374.6 569.627C375.33 568.842 376.134 568.231 377.01 567.792C377.905 567.354 378.781 567.026 379.639 566.806C380.498 566.587 381.292 566.45 382.022 566.396C382.771 566.341 383.355 566.313 383.775 566.313C384.195 566.313 384.77 566.341 385.501 566.396C386.231 566.45 387.007 566.587 387.829 566.806C388.669 567.026 389.508 567.354 390.348 567.792C391.207 568.231 391.973 568.842 392.649 569.627C393.343 570.413 393.909 571.389 394.347 572.558C394.785 573.727 395.004 575.151 395.004 576.831V583.623C395.004 585.303 394.785 586.727 394.347 587.896C393.909 589.064 393.343 590.041 392.649 590.826C391.973 591.611 391.207 592.223 390.348 592.661C389.508 593.1 388.669 593.428 387.829 593.647C387.007 593.866 386.231 594.003 385.501 594.058C384.77 594.113 384.195 594.14 383.775 594.14C383.355 594.14 382.771 594.113 382.022 594.058C381.292 594.003 380.498 593.866 379.639 593.647C378.781 593.428 377.905 593.1 377.01 592.661C376.134 592.223 375.33 591.611 374.6 590.826C373.888 590.041 373.304 589.064 372.847 587.896C372.391 586.727 372.162 585.303 372.162 583.623V576.831ZM380.598 585.54C380.616 586.07 380.744 586.535 380.981 586.937C381.182 587.302 381.493 587.631 381.913 587.923C382.351 588.197 382.972 588.334 383.775 588.334C384.542 588.334 385.126 588.197 385.528 587.923C385.948 587.631 386.258 587.302 386.459 586.937C386.678 586.535 386.806 586.07 386.843 585.54V575.626C386.806 575.078 386.678 574.576 386.459 574.119C386.258 573.754 385.948 573.416 385.528 573.106C385.126 572.777 384.542 572.613 383.775 572.613C382.972 572.613 382.351 572.777 381.913 573.106C381.493 573.416 381.182 573.754 380.981 574.119C380.744 574.576 380.616 575.078 380.598 575.626V585.54ZM422.393 594.743C422.393 596.386 422.165 597.774 421.709 598.906C421.27 600.038 420.704 600.978 420.01 601.727C419.317 602.476 418.541 603.06 417.682 603.48C416.842 603.9 416.012 604.21 415.19 604.411C414.387 604.63 413.647 604.758 412.972 604.795C412.296 604.849 411.785 604.877 411.438 604.877C410.141 604.877 408.845 604.785 407.549 604.603C406.252 604.42 405.065 604.082 403.988 603.589C402.929 603.096 402.043 602.43 401.331 601.59C400.637 600.75 400.245 599.673 400.154 598.358C400.154 598.139 400.19 597.893 400.263 597.619C400.336 597.345 400.501 597.08 400.756 596.824C401.012 596.587 401.395 596.377 401.906 596.195C402.418 596.03 403.112 595.948 403.988 595.948C405.047 595.948 405.86 596.03 406.426 596.195C406.992 596.377 407.412 596.587 407.685 596.824C407.959 597.08 408.133 597.345 408.206 597.619C408.297 597.911 408.388 598.176 408.48 598.413C408.626 598.796 408.909 599.061 409.329 599.207C409.767 599.372 410.36 599.454 411.109 599.454C411.785 599.454 412.314 599.299 412.698 598.988C413.099 598.678 413.401 598.303 413.601 597.865C413.802 597.445 413.93 597.007 413.985 596.551C414.04 596.112 414.067 595.747 414.067 595.455V589.32C413.903 589.868 413.665 590.416 413.355 590.963C413.063 591.511 412.679 592.004 412.205 592.442C411.73 592.88 411.155 593.237 410.479 593.51C409.822 593.784 409.046 593.921 408.151 593.921C407.147 593.921 406.143 593.757 405.138 593.428C404.134 593.1 403.221 592.561 402.399 591.812C401.596 591.045 400.939 590.041 400.427 588.8C399.916 587.558 399.661 586.015 399.661 584.171V576.228C399.661 574.421 399.916 572.905 400.427 571.682C400.939 570.44 401.596 569.436 402.399 568.669C403.221 567.902 404.134 567.354 405.138 567.026C406.143 566.697 407.147 566.533 408.151 566.533C409.046 566.533 409.822 566.679 410.479 566.971C411.155 567.245 411.73 567.601 412.205 568.039C412.679 568.477 413.063 568.97 413.355 569.518C413.665 570.066 413.903 570.604 414.067 571.134C414.067 570.769 414.094 570.321 414.149 569.792C414.222 569.262 414.396 568.76 414.67 568.285C414.943 567.792 415.363 567.382 415.929 567.053C416.496 566.706 417.281 566.533 418.285 566.533C419.271 566.533 420.038 566.715 420.586 567.08C421.133 567.427 421.544 567.893 421.818 568.477C422.092 569.061 422.256 569.728 422.311 570.477C422.366 571.207 422.393 571.956 422.393 572.722V594.743ZM408.151 583.568C408.151 584.043 408.169 584.518 408.206 584.993C408.242 585.467 408.343 585.896 408.507 586.28C408.671 586.645 408.909 586.946 409.219 587.184C409.548 587.403 409.995 587.512 410.561 587.512C411.273 587.512 411.858 587.284 412.314 586.828C412.771 586.371 413.127 585.814 413.382 585.157C413.638 584.481 413.811 583.778 413.903 583.048C414.012 582.299 414.067 581.633 414.067 581.049C414.049 579.661 413.985 578.456 413.875 577.433C413.784 576.411 413.611 575.571 413.355 574.914C413.099 574.238 412.743 573.745 412.287 573.435C411.849 573.106 411.273 572.942 410.561 572.942C409.995 572.942 409.548 573.06 409.219 573.298C408.909 573.517 408.671 573.818 408.507 574.201C408.343 574.585 408.242 575.014 408.206 575.489C408.169 575.963 408.151 576.447 408.151 576.94V583.568ZM466.708 569.71C467.585 569.71 468.361 569.993 469.036 570.559C469.73 571.106 470.342 572.102 470.871 573.544L473.774 581.268H474.213L477.28 570.531C477.426 570.02 477.609 569.527 477.828 569.052C478.065 568.578 478.348 568.158 478.677 567.792C479.006 567.409 479.398 567.108 479.855 566.889C480.311 566.651 480.859 566.533 481.498 566.533C482.155 566.533 482.712 566.651 483.169 566.889C483.625 567.126 484 567.436 484.292 567.82C484.584 568.203 484.794 568.641 484.922 569.134C485.049 569.627 485.113 570.13 485.113 570.641C485.113 571.134 485.04 571.618 484.894 572.092C484.766 572.549 484.62 573.015 484.456 573.489L478.376 589.649C477.956 590.726 477.572 591.557 477.225 592.141C476.897 592.707 476.568 593.127 476.239 593.401C475.911 593.657 475.582 593.812 475.253 593.866C474.925 593.903 474.578 593.921 474.213 593.921C473.811 593.921 473.427 593.903 473.062 593.866C472.715 593.812 472.359 593.657 471.994 593.401C471.647 593.127 471.291 592.707 470.926 592.141C470.561 591.557 470.177 590.726 469.776 589.649L466.927 579.789H466.489L463.531 589.649C463.129 590.726 462.755 591.557 462.408 592.141C462.079 592.707 461.751 593.127 461.422 593.401C461.112 593.657 460.792 593.812 460.464 593.866C460.135 593.903 459.788 593.921 459.423 593.921C459.021 593.921 458.638 593.903 458.272 593.866C457.925 593.812 457.569 593.657 457.204 593.401C456.857 593.127 456.501 592.707 456.136 592.141C455.771 591.557 455.387 590.726 454.986 589.649L448.851 573.489C448.686 573.051 448.531 572.585 448.385 572.092C448.257 571.581 448.193 571.079 448.193 570.586C448.193 570.057 448.257 569.545 448.385 569.052C448.531 568.559 448.75 568.13 449.042 567.765C449.353 567.382 449.755 567.08 450.248 566.861C450.741 566.642 451.352 566.533 452.083 566.533C452.594 566.533 453.05 566.651 453.452 566.889C453.872 567.108 454.246 567.409 454.575 567.792C454.904 568.158 455.187 568.578 455.424 569.052C455.661 569.527 455.862 570.02 456.027 570.531L459.478 581.268H459.916L462.435 573.544C462.892 572.102 463.495 571.106 464.243 570.559C465.01 569.993 465.832 569.71 466.708 569.71ZM489.989 572.668C489.989 571.901 490.025 571.152 490.098 570.422C490.189 569.691 490.381 569.043 490.673 568.477C490.965 567.893 491.385 567.427 491.933 567.08C492.481 566.715 493.22 566.533 494.152 566.533C495.083 566.533 495.822 566.715 496.37 567.08C496.918 567.427 497.338 567.893 497.63 568.477C497.922 569.043 498.105 569.691 498.178 570.422C498.269 571.152 498.315 571.901 498.315 572.668V587.786C498.315 588.553 498.269 589.311 498.178 590.059C498.105 590.79 497.922 591.447 497.63 592.031C497.338 592.597 496.918 593.054 496.37 593.401C495.822 593.748 495.083 593.921 494.152 593.921C493.22 593.921 492.481 593.748 491.933 593.401C491.385 593.054 490.965 592.597 490.673 592.031C490.381 591.447 490.189 590.79 490.098 590.059C490.025 589.311 489.989 588.553 489.989 587.786V572.668ZM498.369 559.74C498.369 561.146 498.004 562.196 497.274 562.89C496.544 563.565 495.521 563.903 494.206 563.903C492.892 563.903 491.869 563.565 491.139 562.89C490.408 562.196 490.043 561.146 490.043 559.74C490.043 558.279 490.408 557.22 491.139 556.563C491.869 555.906 492.892 555.577 494.206 555.577C495.612 555.577 496.653 555.906 497.329 556.563C498.023 557.22 498.369 558.279 498.369 559.74ZM509.982 566.533V561.712C509.982 560.945 510.019 560.197 510.092 559.466C510.183 558.736 510.375 558.088 510.667 557.522C510.959 556.937 511.379 556.472 511.927 556.125C512.475 555.76 513.214 555.577 514.145 555.577C515.058 555.577 515.789 555.76 516.336 556.125C516.884 556.472 517.295 556.937 517.569 557.522C517.861 558.088 518.044 558.736 518.117 559.466C518.208 560.197 518.254 560.945 518.254 561.712V566.533H520.5C520.974 566.533 521.449 566.56 521.924 566.615C522.398 566.651 522.818 566.779 523.184 566.998C523.567 567.217 523.868 567.546 524.087 567.984C524.325 568.422 524.444 569.034 524.444 569.819C524.444 570.568 524.325 571.161 524.087 571.599C523.868 572.038 523.567 572.366 523.184 572.585C522.818 572.805 522.398 572.951 521.924 573.024C521.449 573.078 520.974 573.106 520.5 573.106H518.254V582.692C518.254 583.057 518.263 583.45 518.281 583.87C518.318 584.271 518.418 584.646 518.582 584.993C518.747 585.339 518.993 585.632 519.322 585.869C519.65 586.088 520.116 586.198 520.719 586.198C521.376 586.198 521.933 586.252 522.389 586.362C522.864 586.453 523.248 586.627 523.54 586.882C523.85 587.138 524.078 587.494 524.224 587.951C524.37 588.407 524.444 588.991 524.444 589.703C524.444 590.434 524.27 591.064 523.923 591.593C523.594 592.123 523.147 592.561 522.581 592.908C522.015 593.255 521.358 593.51 520.609 593.675C519.86 593.839 519.075 593.921 518.254 593.921C516.957 593.921 515.843 593.784 514.912 593.51C513.999 593.237 513.232 592.853 512.612 592.36C512.009 591.849 511.525 591.246 511.16 590.552C510.813 589.84 510.548 589.046 510.366 588.17C510.201 587.293 510.092 586.353 510.037 585.349C510.001 584.326 509.982 583.258 509.982 582.144V573.106H508.449C507.974 573.106 507.499 573.078 507.024 573.024C506.568 572.951 506.157 572.805 505.792 572.585C505.427 572.366 505.125 572.038 504.888 571.599C504.669 571.161 504.559 570.568 504.559 569.819C504.559 569.034 504.669 568.422 504.888 567.984C505.125 567.546 505.427 567.217 505.792 566.998C506.157 566.779 506.568 566.651 507.024 566.615C507.499 566.56 507.974 566.533 508.449 566.533H509.982ZM552.928 587.731C552.928 588.498 552.882 589.256 552.791 590.005C552.718 590.735 552.535 591.392 552.243 591.977C551.969 592.561 551.558 593.036 551.011 593.401C550.463 593.748 549.714 593.921 548.765 593.921C547.815 593.921 547.057 593.748 546.491 593.401C545.944 593.036 545.515 592.561 545.204 591.977C544.912 591.392 544.72 590.735 544.629 590.005C544.538 589.256 544.492 588.498 544.492 587.731V576.94C544.492 576.466 544.474 576 544.437 575.543C544.401 575.069 544.3 574.649 544.136 574.284C543.972 573.918 543.725 573.626 543.396 573.407C543.086 573.17 542.648 573.051 542.082 573.051C541.351 573.051 540.758 573.298 540.302 573.791C539.845 574.265 539.48 574.932 539.206 575.79C538.95 576.63 538.768 577.634 538.658 578.803C538.567 579.953 538.521 581.195 538.521 582.528V587.731C538.521 588.498 538.476 589.256 538.384 590.005C538.311 590.735 538.129 591.392 537.837 591.977C537.544 592.561 537.115 593.036 536.549 593.401C535.983 593.748 535.216 593.921 534.249 593.921C533.299 593.921 532.551 593.748 532.003 593.401C531.455 593.036 531.035 592.561 530.743 591.977C530.469 591.392 530.286 590.735 530.195 590.005C530.122 589.256 530.086 588.498 530.086 587.731V561.767C530.086 561 530.122 560.251 530.195 559.521C530.286 558.772 530.469 558.106 530.743 557.522C531.035 556.937 531.455 556.472 532.003 556.125C532.551 555.76 533.299 555.577 534.249 555.577C535.216 555.577 535.983 555.76 536.549 556.125C537.115 556.472 537.544 556.937 537.837 557.522C538.129 558.106 538.311 558.772 538.384 559.521C538.476 560.251 538.521 561 538.521 561.767V571.134C538.686 570.604 538.923 570.066 539.233 569.518C539.544 568.97 539.945 568.477 540.438 568.039C540.931 567.601 541.507 567.245 542.164 566.971C542.84 566.679 543.616 566.533 544.492 566.533C545.496 566.533 546.501 566.706 547.505 567.053C548.527 567.382 549.431 567.929 550.216 568.696C551.02 569.463 551.668 570.477 552.161 571.736C552.672 572.978 552.928 574.512 552.928 576.338V587.731ZM584.206 566.533V561.712C584.206 560.945 584.242 560.197 584.315 559.466C584.407 558.736 584.598 558.088 584.89 557.522C585.183 556.937 585.603 556.472 586.15 556.125C586.698 555.76 587.438 555.577 588.369 555.577C589.282 555.577 590.012 555.76 590.56 556.125C591.108 556.472 591.518 556.937 591.792 557.522C592.085 558.088 592.267 558.736 592.34 559.466C592.431 560.197 592.477 560.945 592.477 561.712V566.533H594.723C595.198 566.533 595.672 566.56 596.147 566.615C596.622 566.651 597.042 566.779 597.407 566.998C597.79 567.217 598.092 567.546 598.311 567.984C598.548 568.422 598.667 569.034 598.667 569.819C598.667 570.568 598.548 571.161 598.311 571.599C598.092 572.038 597.79 572.366 597.407 572.585C597.042 572.805 596.622 572.951 596.147 573.024C595.672 573.078 595.198 573.106 594.723 573.106H592.477V582.692C592.477 583.057 592.486 583.45 592.504 583.87C592.541 584.271 592.641 584.646 592.806 584.993C592.97 585.339 593.217 585.632 593.545 585.869C593.874 586.088 594.34 586.198 594.942 586.198C595.599 586.198 596.156 586.252 596.613 586.362C597.088 586.453 597.471 586.627 597.763 586.882C598.074 587.138 598.302 587.494 598.448 587.951C598.594 588.407 598.667 588.991 598.667 589.703C598.667 590.434 598.493 591.064 598.147 591.593C597.818 592.123 597.371 592.561 596.804 592.908C596.238 593.255 595.581 593.51 594.833 593.675C594.084 593.839 593.299 593.921 592.477 593.921C591.181 593.921 590.067 593.784 589.136 593.51C588.223 593.237 587.456 592.853 586.835 592.36C586.232 591.849 585.749 591.246 585.383 590.552C585.036 589.84 584.772 589.046 584.589 588.17C584.425 587.293 584.315 586.353 584.26 585.349C584.224 584.326 584.206 583.258 584.206 582.144V573.106H582.672C582.197 573.106 581.722 573.078 581.248 573.024C580.791 572.951 580.38 572.805 580.015 572.585C579.65 572.366 579.349 572.038 579.111 571.599C578.892 571.161 578.783 570.568 578.783 569.819C578.783 569.034 578.892 568.422 579.111 567.984C579.349 567.546 579.65 567.217 580.015 566.998C580.38 566.779 580.791 566.651 581.248 566.615C581.722 566.56 582.197 566.533 582.672 566.533H584.206ZM627.151 587.731C627.151 588.498 627.105 589.256 627.014 590.005C626.941 590.735 626.759 591.392 626.466 591.977C626.193 592.561 625.782 593.036 625.234 593.401C624.686 593.748 623.938 593.921 622.988 593.921C622.039 593.921 621.281 593.748 620.715 593.401C620.167 593.036 619.738 592.561 619.428 591.977C619.135 591.392 618.944 590.735 618.852 590.005C618.761 589.256 618.715 588.498 618.715 587.731V576.94C618.715 576.466 618.697 576 618.661 575.543C618.624 575.069 618.524 574.649 618.359 574.284C618.195 573.918 617.949 573.626 617.62 573.407C617.309 573.17 616.871 573.051 616.305 573.051C615.575 573.051 614.981 573.298 614.525 573.791C614.068 574.265 613.703 574.932 613.429 575.79C613.174 576.63 612.991 577.634 612.882 578.803C612.79 579.953 612.745 581.195 612.745 582.528V587.731C612.745 588.498 612.699 589.256 612.608 590.005C612.535 590.735 612.352 591.392 612.06 591.977C611.768 592.561 611.339 593.036 610.773 593.401C610.207 593.748 609.44 593.921 608.472 593.921C607.523 593.921 606.774 593.748 606.226 593.401C605.678 593.036 605.258 592.561 604.966 591.977C604.692 591.392 604.51 590.735 604.419 590.005C604.345 589.256 604.309 588.498 604.309 587.731V561.767C604.309 561 604.345 560.251 604.419 559.521C604.51 558.772 604.692 558.106 604.966 557.522C605.258 556.937 605.678 556.472 606.226 556.125C606.774 555.76 607.523 555.577 608.472 555.577C609.44 555.577 610.207 555.76 610.773 556.125C611.339 556.472 611.768 556.937 612.06 557.522C612.352 558.106 612.535 558.772 612.608 559.521C612.699 560.251 612.745 561 612.745 561.767V571.134C612.909 570.604 613.146 570.066 613.457 569.518C613.767 568.97 614.169 568.477 614.662 568.039C615.155 567.601 615.73 567.245 616.387 566.971C617.063 566.679 617.839 566.533 618.715 566.533C619.72 566.533 620.724 566.706 621.728 567.053C622.751 567.382 623.655 567.929 624.44 568.696C625.243 569.463 625.891 570.477 626.384 571.736C626.896 572.978 627.151 574.512 627.151 576.338V587.731ZM655.142 578.31C655.142 578.602 655.124 578.949 655.088 579.35C655.051 579.734 654.905 580.108 654.649 580.473C654.412 580.82 654.029 581.122 653.499 581.377C652.97 581.633 652.221 581.761 651.253 581.761H640.353V584.39C640.353 584.828 640.407 585.285 640.517 585.759C640.626 586.234 640.809 586.672 641.065 587.074C641.339 587.476 641.695 587.804 642.133 588.06C642.571 588.316 643.11 588.444 643.749 588.444C644.479 588.444 645.036 588.361 645.419 588.197C645.821 588.014 646.132 587.795 646.351 587.54C646.588 587.284 646.798 587.01 646.981 586.718C647.163 586.426 647.401 586.152 647.693 585.896C648.003 585.641 648.423 585.431 648.953 585.266C649.5 585.084 650.249 584.993 651.198 584.993C651.655 584.993 652.093 585.029 652.513 585.102C652.951 585.175 653.335 585.312 653.663 585.513C653.992 585.714 654.257 585.997 654.458 586.362C654.659 586.709 654.759 587.165 654.759 587.731C654.759 588.918 654.385 589.913 653.636 590.717C652.887 591.502 651.947 592.132 650.815 592.607C649.683 593.081 648.45 593.419 647.118 593.62C645.803 593.821 644.57 593.921 643.42 593.921C641.905 593.903 640.462 593.711 639.093 593.346C637.723 592.981 636.509 592.397 635.45 591.593C634.409 590.79 633.578 589.74 632.958 588.444C632.337 587.147 632.026 585.559 632.026 583.678V577.269C632.026 575.534 632.227 574.064 632.629 572.859C633.049 571.654 633.588 570.65 634.245 569.847C634.902 569.043 635.642 568.422 636.463 567.984C637.285 567.528 638.116 567.19 638.956 566.971C639.796 566.752 640.59 566.615 641.339 566.56C642.105 566.505 642.763 566.478 643.31 566.478C645.155 566.478 646.725 566.642 648.021 566.971C649.336 567.299 650.432 567.729 651.308 568.258C652.184 568.788 652.878 569.399 653.39 570.093C653.901 570.787 654.284 571.508 654.54 572.257C654.795 572.987 654.96 573.736 655.033 574.503C655.106 575.251 655.142 575.954 655.142 576.612V578.31ZM640.353 577.652H647.2C647.2 576.794 647.172 576.036 647.118 575.379C647.081 574.704 646.944 574.137 646.707 573.681C646.488 573.225 646.132 572.878 645.639 572.64C645.164 572.403 644.479 572.284 643.584 572.284C642.836 572.284 642.242 572.403 641.804 572.64C641.384 572.878 641.065 573.179 640.846 573.544C640.626 573.891 640.489 574.265 640.435 574.667C640.38 575.069 640.353 575.425 640.353 575.735V577.652ZM668.015 573.708C668.015 574.074 668.134 574.411 668.371 574.722C668.609 575.032 668.928 575.333 669.33 575.626C669.75 575.899 670.225 576.173 670.754 576.447C671.302 576.721 671.868 576.995 672.452 577.269C673.347 577.707 674.26 578.182 675.191 578.693C676.122 579.186 676.971 579.77 677.738 580.446C678.505 581.122 679.126 581.907 679.601 582.801C680.094 583.678 680.34 584.719 680.34 585.924C680.34 587.019 680.176 587.987 679.847 588.827C679.537 589.667 679.117 590.397 678.587 591.018C678.058 591.621 677.437 592.123 676.725 592.524C676.031 592.926 675.291 593.246 674.506 593.483C673.739 593.72 672.954 593.885 672.151 593.976C671.347 594.086 670.59 594.14 669.878 594.14C668.472 594.14 667.248 594.022 666.208 593.784C665.167 593.547 664.272 593.237 663.523 592.853C662.775 592.451 662.154 592.004 661.661 591.511C661.186 591 660.812 590.47 660.538 589.923C660.264 589.375 660.072 588.836 659.963 588.307C659.853 587.759 659.799 587.257 659.799 586.8C659.799 585.705 660.1 584.901 660.702 584.39C661.323 583.879 662.264 583.623 663.523 583.623C664.436 583.623 665.185 583.87 665.769 584.363C666.354 584.856 666.664 585.65 666.7 586.745C666.719 587.111 666.819 587.403 667.002 587.622C667.203 587.841 667.449 588.024 667.741 588.17C668.052 588.297 668.389 588.389 668.755 588.444C669.12 588.48 669.476 588.498 669.823 588.498C670.535 588.498 671.11 588.316 671.548 587.951C672.005 587.567 672.233 587.074 672.233 586.472C672.233 585.96 672.078 585.486 671.767 585.047C671.475 584.591 671.083 584.171 670.59 583.787C670.097 583.404 669.531 583.039 668.892 582.692C668.271 582.327 667.632 581.962 666.974 581.596C666.153 581.158 665.322 580.693 664.482 580.2C663.66 579.707 662.912 579.159 662.236 578.556C661.561 577.954 661.013 577.278 660.593 576.529C660.173 575.763 659.963 574.895 659.963 573.928C659.963 572.503 660.191 571.316 660.648 570.367C661.122 569.399 661.807 568.623 662.702 568.039C663.596 567.436 664.683 567.007 665.961 566.752C667.257 566.496 668.727 566.35 670.371 566.313H670.809C672.288 566.313 673.539 566.441 674.561 566.697C675.602 566.953 676.46 567.29 677.136 567.71C677.829 568.112 678.368 568.568 678.752 569.08C679.153 569.591 679.445 570.111 679.628 570.641C679.829 571.152 679.947 571.645 679.984 572.12C680.039 572.595 680.066 572.996 680.066 573.325C680.066 573.873 679.947 574.329 679.71 574.694C679.491 575.041 679.19 575.324 678.806 575.543C678.441 575.744 678.021 575.89 677.546 575.982C677.072 576.055 676.579 576.1 676.067 576.119C675.629 576.119 675.228 576.046 674.862 575.899C674.515 575.753 674.214 575.571 673.959 575.352C673.703 575.133 673.502 574.886 673.356 574.612C673.228 574.338 673.164 574.074 673.164 573.818C673.128 573.124 672.845 572.595 672.315 572.229C671.804 571.864 671.174 571.682 670.425 571.682C670.115 571.682 669.814 571.718 669.522 571.791C669.248 571.846 668.992 571.956 668.755 572.12C668.536 572.266 668.353 572.467 668.207 572.722C668.079 572.978 668.015 573.307 668.015 573.708ZM708.003 578.31C708.003 578.602 707.984 578.949 707.948 579.35C707.911 579.734 707.765 580.108 707.51 580.473C707.272 580.82 706.889 581.122 706.359 581.377C705.83 581.633 705.081 581.761 704.113 581.761H693.213V584.39C693.213 584.828 693.268 585.285 693.377 585.759C693.487 586.234 693.669 586.672 693.925 587.074C694.199 587.476 694.555 587.804 694.993 588.06C695.431 588.316 695.97 588.444 696.609 588.444C697.339 588.444 697.896 588.361 698.28 588.197C698.681 588.014 698.992 587.795 699.211 587.54C699.448 587.284 699.658 587.01 699.841 586.718C700.023 586.426 700.261 586.152 700.553 585.896C700.863 585.641 701.283 585.431 701.813 585.266C702.361 585.084 703.109 584.993 704.059 584.993C704.515 584.993 704.953 585.029 705.373 585.102C705.812 585.175 706.195 585.312 706.524 585.513C706.852 585.714 707.117 585.997 707.318 586.362C707.519 586.709 707.619 587.165 707.619 587.731C707.619 588.918 707.245 589.913 706.496 590.717C705.748 591.502 704.807 592.132 703.675 592.607C702.543 593.081 701.311 593.419 699.978 593.62C698.663 593.821 697.431 593.921 696.28 593.921C694.765 593.903 693.322 593.711 691.953 593.346C690.583 592.981 689.369 592.397 688.31 591.593C687.269 590.79 686.439 589.74 685.818 588.444C685.197 587.147 684.887 585.559 684.887 583.678V577.269C684.887 575.534 685.087 574.064 685.489 572.859C685.909 571.654 686.448 570.65 687.105 569.847C687.762 569.043 688.502 568.422 689.324 567.984C690.145 567.528 690.976 567.19 691.816 566.971C692.656 566.752 693.45 566.615 694.199 566.56C694.966 566.505 695.623 566.478 696.171 566.478C698.015 566.478 699.585 566.642 700.882 566.971C702.196 567.299 703.292 567.729 704.168 568.258C705.045 568.788 705.739 569.399 706.25 570.093C706.761 570.787 707.144 571.508 707.4 572.257C707.656 572.987 707.82 573.736 707.893 574.503C707.966 575.251 708.003 575.954 708.003 576.612V578.31ZM693.213 577.652H700.06C700.06 576.794 700.033 576.036 699.978 575.379C699.941 574.704 699.804 574.137 699.567 573.681C699.348 573.225 698.992 572.878 698.499 572.64C698.024 572.403 697.339 572.284 696.445 572.284C695.696 572.284 695.103 572.403 694.664 572.64C694.244 572.878 693.925 573.179 693.706 573.544C693.487 573.891 693.35 574.265 693.295 574.667C693.24 575.069 693.213 575.425 693.213 575.735V577.652ZM227.55 628.445C227.55 628.737 227.577 629.111 227.632 629.568C227.687 630.006 227.815 630.444 228.016 630.882C228.216 631.302 228.509 631.668 228.892 631.978C229.294 632.288 229.832 632.444 230.508 632.444C231.311 632.444 231.941 632.352 232.398 632.17C232.854 631.987 233.192 631.741 233.411 631.43C233.63 631.101 233.767 630.727 233.822 630.307C233.877 629.869 233.904 629.413 233.904 628.938C233.904 628.7 233.941 628.436 234.014 628.143C234.105 627.833 234.306 627.55 234.616 627.294C234.927 627.021 235.383 626.801 235.986 626.637C236.607 626.455 237.446 626.363 238.505 626.363C239.473 626.363 240.222 626.473 240.751 626.692C241.281 626.911 241.664 627.176 241.902 627.486C242.157 627.778 242.303 628.089 242.34 628.417C242.376 628.728 242.395 628.974 242.395 629.157C242.395 630.325 242.212 631.357 241.847 632.252C241.5 633.128 241.025 633.895 240.423 634.552C239.82 635.192 239.126 635.73 238.341 636.168C237.556 636.607 236.716 636.954 235.821 637.209C234.945 637.465 234.05 637.647 233.137 637.757C232.224 637.866 231.348 637.921 230.508 637.921C229.065 637.921 227.669 637.73 226.317 637.346C224.966 636.963 223.761 636.36 222.702 635.538C221.661 634.717 220.821 633.667 220.182 632.389C219.543 631.092 219.224 629.54 219.224 627.733V621.324C219.224 619.589 219.425 618.119 219.826 616.914C220.246 615.709 220.785 614.705 221.442 613.901C222.1 613.098 222.839 612.477 223.661 612.039C224.482 611.582 225.313 611.245 226.153 611.026C226.993 610.806 227.787 610.67 228.536 610.615C229.303 610.56 229.96 610.533 230.508 610.533C232.133 610.533 233.548 610.67 234.753 610.943C235.977 611.217 237.026 611.582 237.903 612.039C238.779 612.495 239.501 613.025 240.067 613.627C240.651 614.212 241.107 614.833 241.436 615.49C241.765 616.147 241.993 616.805 242.121 617.462C242.267 618.119 242.34 618.731 242.34 619.297C242.34 619.589 242.322 619.936 242.285 620.338C242.249 620.721 242.103 621.095 241.847 621.461C241.61 621.808 241.226 622.109 240.697 622.364C240.167 622.62 239.418 622.748 238.451 622.748C238.104 622.748 237.666 622.739 237.136 622.721C236.625 622.684 236.123 622.584 235.63 622.419C235.137 622.255 234.717 621.999 234.37 621.652C234.023 621.305 233.849 620.812 233.849 620.173C233.849 619.735 233.822 619.315 233.767 618.914C233.731 618.494 233.603 618.128 233.384 617.818C233.165 617.508 232.827 617.261 232.37 617.078C231.932 616.878 231.311 616.777 230.508 616.777C229.832 616.777 229.294 616.887 228.892 617.106C228.509 617.325 228.216 617.599 228.016 617.928C227.815 618.256 227.687 618.603 227.632 618.968C227.577 619.333 227.55 619.662 227.55 619.954V628.445ZM269.29 631.731C269.29 632.498 269.263 633.256 269.208 634.005C269.153 634.735 268.989 635.392 268.715 635.977C268.441 636.561 268.03 637.036 267.483 637.401C266.935 637.748 266.168 637.921 265.182 637.921C264.178 637.921 263.393 637.757 262.827 637.428C262.261 637.081 261.841 636.671 261.567 636.196C261.293 635.703 261.119 635.192 261.046 634.662C260.992 634.132 260.964 633.685 260.964 633.32C260.8 633.849 260.562 634.388 260.252 634.936C259.96 635.484 259.576 635.977 259.102 636.415C258.627 636.853 258.052 637.218 257.376 637.51C256.719 637.784 255.943 637.921 255.048 637.921C254.044 637.921 253.04 637.757 252.035 637.428C251.031 637.1 250.127 636.552 249.324 635.785C248.521 635.018 247.863 634.023 247.352 632.8C246.859 631.558 246.613 630.033 246.613 628.226V620.283C246.613 618.457 246.859 616.932 247.352 615.709C247.863 614.467 248.521 613.472 249.324 612.724C250.127 611.957 251.031 611.409 252.035 611.08C253.04 610.752 254.044 610.587 255.048 610.587C255.943 610.587 256.719 610.724 257.376 610.998C258.052 611.272 258.627 611.628 259.102 612.066C259.576 612.505 259.96 612.998 260.252 613.545C260.562 614.093 260.8 614.641 260.964 615.189C260.964 614.276 261.092 613.518 261.348 612.915C261.603 612.313 261.932 611.838 262.334 611.491C262.735 611.126 263.183 610.879 263.676 610.752C264.187 610.606 264.689 610.533 265.182 610.533C266.095 610.533 266.825 610.715 267.373 611.08C267.921 611.427 268.332 611.893 268.606 612.477C268.898 613.043 269.08 613.71 269.153 614.477C269.245 615.225 269.29 615.992 269.29 616.777V631.731ZM255.048 627.514C255.048 628.007 255.066 628.49 255.103 628.965C255.14 629.44 255.24 629.869 255.404 630.252C255.569 630.636 255.806 630.946 256.116 631.184C256.445 631.403 256.892 631.512 257.458 631.512C258.171 631.512 258.746 631.357 259.184 631.047C259.64 630.718 259.996 630.225 260.252 629.568C260.508 628.892 260.681 628.052 260.772 627.048C260.882 626.025 260.946 624.811 260.964 623.405C260.964 622.839 260.909 622.191 260.8 621.461C260.709 620.712 260.535 620.009 260.279 619.352C260.024 618.694 259.668 618.137 259.211 617.681C258.755 617.225 258.171 616.996 257.458 616.996C256.892 616.996 256.445 617.115 256.116 617.352C255.806 617.571 255.569 617.864 255.404 618.229C255.24 618.594 255.14 619.014 255.103 619.489C255.066 619.945 255.048 620.411 255.048 620.885V627.514ZM293.338 614.641C293.338 616.065 292.982 617.106 292.269 617.763C291.576 618.421 290.581 618.749 289.284 618.749C289.102 618.749 288.837 618.767 288.49 618.804C288.161 618.822 287.805 618.895 287.422 619.023C287.038 619.133 286.646 619.306 286.244 619.543C285.861 619.763 285.504 620.073 285.176 620.475C284.847 620.858 284.582 621.351 284.382 621.954C284.181 622.556 284.08 623.277 284.08 624.117V631.951C284.08 632.699 284.035 633.43 283.943 634.142C283.87 634.854 283.688 635.493 283.396 636.059C283.103 636.607 282.683 637.054 282.136 637.401C281.588 637.748 280.848 637.921 279.917 637.921C279.004 637.921 278.283 637.748 277.753 637.401C277.224 637.054 276.813 636.607 276.521 636.059C276.247 635.493 276.065 634.854 275.973 634.142C275.9 633.43 275.864 632.699 275.864 631.951V616.613C275.864 615.846 275.9 615.106 275.973 614.394C276.065 613.664 276.247 613.016 276.521 612.45C276.813 611.884 277.224 611.436 277.753 611.108C278.283 610.761 279.004 610.587 279.917 610.587C280.848 610.587 281.561 610.797 282.054 611.217C282.565 611.619 282.939 612.148 283.176 612.806C283.414 613.445 283.551 614.166 283.587 614.97C283.624 615.755 283.642 616.522 283.642 617.27H284.08C284.336 616.248 284.674 615.326 285.094 614.504C285.514 613.664 285.979 612.961 286.49 612.395C287.002 611.811 287.55 611.363 288.134 611.053C288.718 610.743 289.302 610.587 289.887 610.587C290.599 610.587 291.174 610.67 291.612 610.834C292.069 610.98 292.425 611.217 292.68 611.546C292.936 611.875 293.109 612.295 293.201 612.806C293.292 613.317 293.338 613.929 293.338 614.641ZM318.919 631.731C318.919 632.498 318.891 633.256 318.837 634.005C318.782 634.735 318.617 635.392 318.344 635.977C318.07 636.561 317.659 637.036 317.111 637.401C316.563 637.748 315.796 637.921 314.81 637.921C313.806 637.921 313.021 637.757 312.455 637.428C311.889 637.081 311.469 636.671 311.195 636.196C310.921 635.703 310.748 635.192 310.675 634.662C310.62 634.132 310.593 633.685 310.593 633.32C310.428 633.849 310.191 634.388 309.88 634.936C309.588 635.484 309.205 635.977 308.73 636.415C308.255 636.853 307.68 637.218 307.005 637.51C306.347 637.784 305.571 637.921 304.677 637.921C303.672 637.921 302.668 637.757 301.664 637.428C300.66 637.1 299.756 636.552 298.952 635.785C298.149 635.018 297.492 634.023 296.98 632.8C296.487 631.558 296.241 630.033 296.241 628.226V620.283C296.241 618.457 296.487 616.932 296.98 615.709C297.492 614.467 298.149 613.472 298.952 612.724C299.756 611.957 300.66 611.409 301.664 611.08C302.668 610.752 303.672 610.587 304.677 610.587C305.571 610.587 306.347 610.724 307.005 610.998C307.68 611.272 308.255 611.628 308.73 612.066C309.205 612.505 309.588 612.998 309.88 613.545C310.191 614.093 310.428 614.641 310.593 615.189C310.593 614.276 310.72 613.518 310.976 612.915C311.232 612.313 311.56 611.838 311.962 611.491C312.364 611.126 312.811 610.879 313.304 610.752C313.815 610.606 314.317 610.533 314.81 610.533C315.723 610.533 316.454 610.715 317.001 611.08C317.549 611.427 317.96 611.893 318.234 612.477C318.526 613.043 318.709 613.71 318.782 614.477C318.873 615.225 318.919 615.992 318.919 616.777V631.731ZM304.677 627.514C304.677 628.007 304.695 628.49 304.731 628.965C304.768 629.44 304.868 629.869 305.033 630.252C305.197 630.636 305.434 630.946 305.745 631.184C306.073 631.403 306.521 631.512 307.087 631.512C307.799 631.512 308.374 631.357 308.812 631.047C309.269 630.718 309.625 630.225 309.88 629.568C310.136 628.892 310.31 628.052 310.401 627.048C310.51 626.025 310.574 624.811 310.593 623.405C310.593 622.839 310.538 622.191 310.428 621.461C310.337 620.712 310.163 620.009 309.908 619.352C309.652 618.694 309.296 618.137 308.84 617.681C308.383 617.225 307.799 616.996 307.087 616.996C306.521 616.996 306.073 617.115 305.745 617.352C305.434 617.571 305.197 617.864 305.033 618.229C304.868 618.594 304.768 619.014 304.731 619.489C304.695 619.945 304.677 620.411 304.677 620.885V627.514ZM332.503 628.445C332.503 628.737 332.531 629.111 332.586 629.568C332.64 630.006 332.768 630.444 332.969 630.882C333.17 631.302 333.462 631.668 333.846 631.978C334.247 632.288 334.786 632.444 335.461 632.444C336.265 632.444 336.895 632.352 337.351 632.17C337.808 631.987 338.146 631.741 338.365 631.43C338.584 631.101 338.721 630.727 338.775 630.307C338.83 629.869 338.858 629.413 338.858 628.938C338.858 628.7 338.894 628.436 338.967 628.143C339.058 627.833 339.259 627.55 339.57 627.294C339.88 627.021 340.337 626.801 340.939 626.637C341.56 626.455 342.4 626.363 343.459 626.363C344.427 626.363 345.175 626.473 345.705 626.692C346.234 626.911 346.618 627.176 346.855 627.486C347.111 627.778 347.257 628.089 347.293 628.417C347.33 628.728 347.348 628.974 347.348 629.157C347.348 630.325 347.166 631.357 346.8 632.252C346.453 633.128 345.979 633.895 345.376 634.552C344.774 635.192 344.08 635.73 343.295 636.168C342.509 636.607 341.67 636.954 340.775 637.209C339.898 637.465 339.004 637.647 338.091 637.757C337.178 637.866 336.301 637.921 335.461 637.921C334.019 637.921 332.622 637.73 331.271 637.346C329.92 636.963 328.715 636.36 327.656 635.538C326.615 634.717 325.775 633.667 325.136 632.389C324.497 631.092 324.177 629.54 324.177 627.733V621.324C324.177 619.589 324.378 618.119 324.78 616.914C325.2 615.709 325.738 614.705 326.396 613.901C327.053 613.098 327.793 612.477 328.614 612.039C329.436 611.582 330.267 611.245 331.107 611.026C331.947 610.806 332.741 610.67 333.489 610.615C334.256 610.56 334.914 610.533 335.461 610.533C337.087 610.533 338.502 610.67 339.707 610.943C340.93 611.217 341.98 611.582 342.856 612.039C343.733 612.495 344.454 613.025 345.02 613.627C345.604 614.212 346.061 614.833 346.39 615.49C346.718 616.147 346.946 616.805 347.074 617.462C347.22 618.119 347.293 618.731 347.293 619.297C347.293 619.589 347.275 619.936 347.239 620.338C347.202 620.721 347.056 621.095 346.8 621.461C346.563 621.808 346.18 622.109 345.65 622.364C345.121 622.62 344.372 622.748 343.404 622.748C343.057 622.748 342.619 622.739 342.09 622.721C341.578 622.684 341.076 622.584 340.583 622.419C340.09 622.255 339.67 621.999 339.323 621.652C338.976 621.305 338.803 620.812 338.803 620.173C338.803 619.735 338.775 619.315 338.721 618.914C338.684 618.494 338.556 618.128 338.337 617.818C338.118 617.508 337.78 617.261 337.324 617.078C336.886 616.878 336.265 616.777 335.461 616.777C334.786 616.777 334.247 616.887 333.846 617.106C333.462 617.325 333.17 617.599 332.969 617.928C332.768 618.256 332.64 618.603 332.586 618.968C332.531 619.333 332.503 619.662 332.503 619.954V628.445ZM356.332 610.533V605.712C356.332 604.945 356.368 604.197 356.441 603.466C356.533 602.736 356.724 602.088 357.016 601.522C357.309 600.937 357.728 600.472 358.276 600.125C358.824 599.76 359.564 599.577 360.495 599.577C361.408 599.577 362.138 599.76 362.686 600.125C363.234 600.472 363.644 600.937 363.918 601.522C364.21 602.088 364.393 602.736 364.466 603.466C364.557 604.197 364.603 604.945 364.603 605.712V610.533H366.849C367.324 610.533 367.798 610.56 368.273 610.615C368.748 610.651 369.168 610.779 369.533 610.998C369.916 611.217 370.218 611.546 370.437 611.984C370.674 612.422 370.793 613.034 370.793 613.819C370.793 614.568 370.674 615.161 370.437 615.599C370.218 616.038 369.916 616.366 369.533 616.585C369.168 616.805 368.748 616.951 368.273 617.024C367.798 617.078 367.324 617.106 366.849 617.106H364.603V626.692C364.603 627.057 364.612 627.45 364.63 627.87C364.667 628.271 364.767 628.646 364.932 628.993C365.096 629.339 365.343 629.632 365.671 629.869C366 630.088 366.465 630.198 367.068 630.198C367.725 630.198 368.282 630.252 368.739 630.362C369.213 630.453 369.597 630.627 369.889 630.882C370.199 631.138 370.428 631.494 370.574 631.951C370.72 632.407 370.793 632.991 370.793 633.703C370.793 634.434 370.619 635.064 370.273 635.593C369.944 636.123 369.497 636.561 368.93 636.908C368.364 637.255 367.707 637.51 366.958 637.675C366.21 637.839 365.425 637.921 364.603 637.921C363.307 637.921 362.193 637.784 361.262 637.51C360.349 637.237 359.582 636.853 358.961 636.36C358.358 635.849 357.875 635.246 357.509 634.552C357.162 633.84 356.898 633.046 356.715 632.17C356.551 631.293 356.441 630.353 356.386 629.349C356.35 628.326 356.332 627.258 356.332 626.144V617.106H354.798C354.323 617.106 353.848 617.078 353.374 617.024C352.917 616.951 352.506 616.805 352.141 616.585C351.776 616.366 351.475 616.038 351.237 615.599C351.018 615.161 350.909 614.568 350.909 613.819C350.909 613.034 351.018 612.422 351.237 611.984C351.475 611.546 351.776 611.217 352.141 610.998C352.506 610.779 352.917 610.651 353.374 610.615C353.848 610.56 354.323 610.533 354.798 610.533H356.332ZM398.729 622.31C398.729 622.602 398.711 622.949 398.675 623.35C398.638 623.734 398.492 624.108 398.236 624.473C397.999 624.82 397.616 625.122 397.086 625.377C396.557 625.633 395.808 625.761 394.84 625.761H383.939V628.39C383.939 628.828 383.994 629.285 384.104 629.759C384.213 630.234 384.396 630.672 384.652 631.074C384.925 631.476 385.282 631.804 385.72 632.06C386.158 632.316 386.697 632.444 387.336 632.444C388.066 632.444 388.623 632.361 389.006 632.197C389.408 632.014 389.718 631.795 389.938 631.54C390.175 631.284 390.385 631.01 390.568 630.718C390.75 630.426 390.987 630.152 391.28 629.896C391.59 629.641 392.01 629.431 392.54 629.266C393.087 629.084 393.836 628.993 394.785 628.993C395.242 628.993 395.68 629.029 396.1 629.102C396.538 629.175 396.922 629.312 397.25 629.513C397.579 629.714 397.844 629.997 398.045 630.362C398.245 630.709 398.346 631.165 398.346 631.731C398.346 632.918 397.972 633.913 397.223 634.717C396.474 635.502 395.534 636.132 394.402 636.607C393.27 637.081 392.037 637.419 390.704 637.62C389.39 637.821 388.157 637.921 387.007 637.921C385.491 637.903 384.049 637.711 382.68 637.346C381.31 636.981 380.096 636.397 379.037 635.593C377.996 634.79 377.165 633.74 376.545 632.444C375.924 631.147 375.613 629.559 375.613 627.678V621.269C375.613 619.534 375.814 618.064 376.216 616.859C376.636 615.654 377.174 614.65 377.832 613.847C378.489 613.043 379.229 612.422 380.05 611.984C380.872 611.528 381.703 611.19 382.543 610.971C383.383 610.752 384.177 610.615 384.925 610.56C385.692 610.505 386.35 610.478 386.897 610.478C388.742 610.478 390.312 610.642 391.608 610.971C392.923 611.299 394.019 611.729 394.895 612.258C395.771 612.788 396.465 613.399 396.976 614.093C397.488 614.787 397.871 615.508 398.127 616.257C398.382 616.987 398.547 617.736 398.62 618.503C398.693 619.251 398.729 619.954 398.729 620.612V622.31ZM383.939 621.652H390.787C390.787 620.794 390.759 620.036 390.704 619.379C390.668 618.704 390.531 618.137 390.294 617.681C390.075 617.225 389.718 616.878 389.225 616.64C388.751 616.403 388.066 616.284 387.171 616.284C386.423 616.284 385.829 616.403 385.391 616.64C384.971 616.878 384.652 617.179 384.432 617.544C384.213 617.891 384.076 618.265 384.022 618.667C383.967 619.069 383.939 619.425 383.939 619.735V621.652ZM422.119 614.641C422.119 616.065 421.763 617.106 421.051 617.763C420.357 618.421 419.362 618.749 418.066 618.749C417.883 618.749 417.618 618.767 417.272 618.804C416.943 618.822 416.587 618.895 416.203 619.023C415.82 619.133 415.427 619.306 415.026 619.543C414.642 619.763 414.286 620.073 413.957 620.475C413.629 620.858 413.364 621.351 413.163 621.954C412.962 622.556 412.862 623.277 412.862 624.117V631.951C412.862 632.699 412.816 633.43 412.725 634.142C412.652 634.854 412.469 635.493 412.177 636.059C411.885 636.607 411.465 637.054 410.917 637.401C410.37 637.748 409.63 637.921 408.699 637.921C407.786 637.921 407.065 637.748 406.535 637.401C406.006 637.054 405.595 636.607 405.303 636.059C405.029 635.493 404.846 634.854 404.755 634.142C404.682 633.43 404.645 632.699 404.645 631.951V616.613C404.645 615.846 404.682 615.106 404.755 614.394C404.846 613.664 405.029 613.016 405.303 612.45C405.595 611.884 406.006 611.436 406.535 611.108C407.065 610.761 407.786 610.587 408.699 610.587C409.63 610.587 410.342 610.797 410.835 611.217C411.346 611.619 411.721 612.148 411.958 612.806C412.195 613.445 412.332 614.166 412.369 614.97C412.405 615.755 412.424 616.522 412.424 617.27H412.862C413.118 616.248 413.455 615.326 413.875 614.504C414.295 613.664 414.761 612.961 415.272 612.395C415.783 611.811 416.331 611.363 416.915 611.053C417.5 610.743 418.084 610.587 418.668 610.587C419.38 610.587 419.956 610.67 420.394 610.834C420.85 610.98 421.206 611.217 421.462 611.546C421.718 611.875 421.891 612.295 421.982 612.806C422.074 613.317 422.119 613.929 422.119 614.641ZM426.94 616.668C426.94 615.901 426.976 615.152 427.049 614.422C427.141 613.691 427.332 613.043 427.624 612.477C427.917 611.893 428.337 611.427 428.884 611.08C429.432 610.715 430.172 610.533 431.103 610.533C432.034 610.533 432.774 610.715 433.321 611.08C433.869 611.427 434.289 611.893 434.581 612.477C434.873 613.043 435.056 613.691 435.129 614.422C435.22 615.152 435.266 615.901 435.266 616.668V631.786C435.266 632.553 435.22 633.311 435.129 634.059C435.056 634.79 434.873 635.447 434.581 636.031C434.289 636.597 433.869 637.054 433.321 637.401C432.774 637.748 432.034 637.921 431.103 637.921C430.172 637.921 429.432 637.748 428.884 637.401C428.337 637.054 427.917 636.597 427.624 636.031C427.332 635.447 427.141 634.79 427.049 634.059C426.976 633.311 426.94 632.553 426.94 631.786V616.668ZM435.321 603.74C435.321 605.146 434.955 606.196 434.225 606.89C433.495 607.565 432.472 607.903 431.158 607.903C429.843 607.903 428.82 607.565 428.09 606.89C427.36 606.196 426.995 605.146 426.995 603.74C426.995 602.279 427.36 601.22 428.09 600.563C428.82 599.906 429.843 599.577 431.158 599.577C432.564 599.577 433.604 599.906 434.28 600.563C434.974 601.22 435.321 602.279 435.321 603.74ZM450.439 617.708C450.439 618.074 450.558 618.411 450.795 618.722C451.033 619.032 451.352 619.333 451.754 619.626C452.174 619.899 452.649 620.173 453.178 620.447C453.726 620.721 454.292 620.995 454.876 621.269C455.771 621.707 456.684 622.182 457.615 622.693C458.546 623.186 459.395 623.77 460.162 624.446C460.929 625.122 461.55 625.907 462.025 626.801C462.518 627.678 462.764 628.719 462.764 629.924C462.764 631.019 462.6 631.987 462.271 632.827C461.961 633.667 461.541 634.397 461.011 635.018C460.482 635.621 459.861 636.123 459.149 636.524C458.455 636.926 457.715 637.246 456.93 637.483C456.163 637.72 455.378 637.885 454.575 637.976C453.772 638.086 453.014 638.14 452.302 638.14C450.896 638.14 449.672 638.022 448.632 637.784C447.591 637.547 446.696 637.237 445.947 636.853C445.199 636.451 444.578 636.004 444.085 635.511C443.61 635 443.236 634.47 442.962 633.923C442.688 633.375 442.497 632.836 442.387 632.307C442.277 631.759 442.223 631.257 442.223 630.8C442.223 629.705 442.524 628.901 443.126 628.39C443.747 627.879 444.688 627.623 445.947 627.623C446.86 627.623 447.609 627.87 448.193 628.363C448.778 628.856 449.088 629.65 449.125 630.745C449.143 631.111 449.243 631.403 449.426 631.622C449.627 631.841 449.873 632.024 450.165 632.17C450.476 632.297 450.814 632.389 451.179 632.444C451.544 632.48 451.9 632.498 452.247 632.498C452.959 632.498 453.534 632.316 453.972 631.951C454.429 631.567 454.657 631.074 454.657 630.472C454.657 629.96 454.502 629.486 454.191 629.047C453.899 628.591 453.507 628.171 453.014 627.787C452.521 627.404 451.955 627.039 451.316 626.692C450.695 626.327 450.056 625.962 449.398 625.596C448.577 625.158 447.746 624.693 446.906 624.2C446.084 623.707 445.336 623.159 444.66 622.556C443.985 621.954 443.437 621.278 443.017 620.529C442.597 619.763 442.387 618.895 442.387 617.928C442.387 616.503 442.615 615.316 443.072 614.367C443.546 613.399 444.231 612.623 445.126 612.039C446.021 611.436 447.107 611.007 448.385 610.752C449.681 610.496 451.151 610.35 452.795 610.313H453.233C454.712 610.313 455.963 610.441 456.985 610.697C458.026 610.953 458.884 611.29 459.56 611.71C460.254 612.112 460.792 612.568 461.176 613.08C461.577 613.591 461.869 614.111 462.052 614.641C462.253 615.152 462.372 615.645 462.408 616.12C462.463 616.595 462.49 616.996 462.49 617.325C462.49 617.873 462.372 618.329 462.134 618.694C461.915 619.041 461.614 619.324 461.23 619.543C460.865 619.744 460.445 619.89 459.97 619.982C459.496 620.055 459.003 620.1 458.492 620.119C458.053 620.119 457.652 620.046 457.286 619.899C456.939 619.753 456.638 619.571 456.383 619.352C456.127 619.133 455.926 618.886 455.78 618.612C455.652 618.338 455.588 618.074 455.588 617.818C455.552 617.124 455.269 616.595 454.739 616.229C454.228 615.864 453.598 615.682 452.849 615.682C452.539 615.682 452.238 615.718 451.946 615.791C451.672 615.846 451.416 615.956 451.179 616.12C450.96 616.266 450.777 616.467 450.631 616.722C450.503 616.978 450.439 617.307 450.439 617.708ZM471.857 610.533V605.712C471.857 604.945 471.894 604.197 471.967 603.466C472.058 602.736 472.25 602.088 472.542 601.522C472.834 600.937 473.254 600.472 473.802 600.125C474.35 599.76 475.089 599.577 476.02 599.577C476.933 599.577 477.664 599.76 478.211 600.125C478.759 600.472 479.17 600.937 479.444 601.522C479.736 602.088 479.919 602.736 479.992 603.466C480.083 604.197 480.129 604.945 480.129 605.712V610.533H482.374C482.849 610.533 483.324 610.56 483.799 610.615C484.273 610.651 484.693 610.779 485.059 610.998C485.442 611.217 485.743 611.546 485.962 611.984C486.2 612.422 486.318 613.034 486.318 613.819C486.318 614.568 486.2 615.161 485.962 615.599C485.743 616.038 485.442 616.366 485.059 616.585C484.693 616.805 484.273 616.951 483.799 617.024C483.324 617.078 482.849 617.106 482.374 617.106H480.129V626.692C480.129 627.057 480.138 627.45 480.156 627.87C480.193 628.271 480.293 628.646 480.457 628.993C480.622 629.339 480.868 629.632 481.197 629.869C481.525 630.088 481.991 630.198 482.594 630.198C483.251 630.198 483.808 630.252 484.264 630.362C484.739 630.453 485.122 630.627 485.415 630.882C485.725 631.138 485.953 631.494 486.099 631.951C486.245 632.407 486.318 632.991 486.318 633.703C486.318 634.434 486.145 635.064 485.798 635.593C485.469 636.123 485.022 636.561 484.456 636.908C483.89 637.255 483.233 637.51 482.484 637.675C481.735 637.839 480.95 637.921 480.129 637.921C478.832 637.921 477.718 637.784 476.787 637.51C475.874 637.237 475.107 636.853 474.487 636.36C473.884 635.849 473.4 635.246 473.035 634.552C472.688 633.84 472.423 633.046 472.241 632.17C472.076 631.293 471.967 630.353 471.912 629.349C471.875 628.326 471.857 627.258 471.857 626.144V617.106H470.323C469.849 617.106 469.374 617.078 468.899 617.024C468.443 616.951 468.032 616.805 467.667 616.585C467.302 616.366 467 616.038 466.763 615.599C466.544 615.161 466.434 614.568 466.434 613.819C466.434 613.034 466.544 612.422 466.763 611.984C467 611.546 467.302 611.217 467.667 610.998C468.032 610.779 468.443 610.651 468.899 610.615C469.374 610.56 469.849 610.533 470.323 610.533H471.857ZM492.837 616.668C492.837 615.901 492.873 615.152 492.946 614.422C493.038 613.691 493.23 613.043 493.522 612.477C493.814 611.893 494.234 611.427 494.782 611.08C495.329 610.715 496.069 610.533 497 610.533C497.931 610.533 498.671 610.715 499.219 611.08C499.766 611.427 500.186 611.893 500.478 612.477C500.771 613.043 500.953 613.691 501.026 614.422C501.117 615.152 501.163 615.901 501.163 616.668V631.786C501.163 632.553 501.117 633.311 501.026 634.059C500.953 634.79 500.771 635.447 500.478 636.031C500.186 636.597 499.766 637.054 499.219 637.401C498.671 637.748 497.931 637.921 497 637.921C496.069 637.921 495.329 637.748 494.782 637.401C494.234 637.054 493.814 636.597 493.522 636.031C493.23 635.447 493.038 634.79 492.946 634.059C492.873 633.311 492.837 632.553 492.837 631.786V616.668ZM501.218 603.74C501.218 605.146 500.853 606.196 500.122 606.89C499.392 607.565 498.369 607.903 497.055 607.903C495.74 607.903 494.718 607.565 493.987 606.89C493.257 606.196 492.892 605.146 492.892 603.74C492.892 602.279 493.257 601.22 493.987 600.563C494.718 599.906 495.74 599.577 497.055 599.577C498.461 599.577 499.502 599.906 500.177 600.563C500.871 601.22 501.218 602.279 501.218 603.74ZM516.391 628.445C516.391 628.737 516.419 629.111 516.473 629.568C516.528 630.006 516.656 630.444 516.857 630.882C517.058 631.302 517.35 631.668 517.733 631.978C518.135 632.288 518.674 632.444 519.349 632.444C520.153 632.444 520.783 632.352 521.239 632.17C521.695 631.987 522.033 631.741 522.252 631.43C522.472 631.101 522.608 630.727 522.663 630.307C522.718 629.869 522.745 629.413 522.745 628.938C522.745 628.7 522.782 628.436 522.855 628.143C522.946 627.833 523.147 627.55 523.458 627.294C523.768 627.021 524.224 626.801 524.827 626.637C525.448 626.455 526.288 626.363 527.347 626.363C528.314 626.363 529.063 626.473 529.593 626.692C530.122 626.911 530.506 627.176 530.743 627.486C530.999 627.778 531.145 628.089 531.181 628.417C531.218 628.728 531.236 628.974 531.236 629.157C531.236 630.325 531.053 631.357 530.688 632.252C530.341 633.128 529.866 633.895 529.264 634.552C528.661 635.192 527.968 635.73 527.182 636.168C526.397 636.607 525.557 636.954 524.663 637.209C523.786 637.465 522.891 637.647 521.979 637.757C521.066 637.866 520.189 637.921 519.349 637.921C517.907 637.921 516.51 637.73 515.159 637.346C513.808 636.963 512.602 636.36 511.543 635.538C510.503 634.717 509.663 633.667 509.024 632.389C508.385 631.092 508.065 629.54 508.065 627.733V621.324C508.065 619.589 508.266 618.119 508.668 616.914C509.088 615.709 509.626 614.705 510.284 613.901C510.941 613.098 511.68 612.477 512.502 612.039C513.324 611.582 514.154 611.245 514.994 611.026C515.834 610.806 516.629 610.67 517.377 610.615C518.144 610.56 518.801 610.533 519.349 610.533C520.974 610.533 522.389 610.67 523.594 610.943C524.818 611.217 525.868 611.582 526.744 612.039C527.621 612.495 528.342 613.025 528.908 613.627C529.492 614.212 529.949 614.833 530.277 615.49C530.606 616.147 530.834 616.805 530.962 617.462C531.108 618.119 531.181 618.731 531.181 619.297C531.181 619.589 531.163 619.936 531.126 620.338C531.09 620.721 530.944 621.095 530.688 621.461C530.451 621.808 530.067 622.109 529.538 622.364C529.008 622.62 528.26 622.748 527.292 622.748C526.945 622.748 526.507 622.739 525.977 622.721C525.466 622.684 524.964 622.584 524.471 622.419C523.978 622.255 523.558 621.999 523.211 621.652C522.864 621.305 522.691 620.812 522.691 620.173C522.691 619.735 522.663 619.315 522.608 618.914C522.572 618.494 522.444 618.128 522.225 617.818C522.006 617.508 521.668 617.261 521.212 617.078C520.773 616.878 520.153 616.777 519.349 616.777C518.674 616.777 518.135 616.887 517.733 617.106C517.35 617.325 517.058 617.599 516.857 617.928C516.656 618.256 516.528 618.603 516.473 618.968C516.419 619.333 516.391 619.662 516.391 619.954V628.445ZM543.725 617.708C543.725 618.074 543.844 618.411 544.081 618.722C544.319 619.032 544.638 619.333 545.04 619.626C545.46 619.899 545.934 620.173 546.464 620.447C547.012 620.721 547.578 620.995 548.162 621.269C549.057 621.707 549.97 622.182 550.901 622.693C551.832 623.186 552.681 623.77 553.448 624.446C554.215 625.122 554.836 625.907 555.311 626.801C555.804 627.678 556.05 628.719 556.05 629.924C556.05 631.019 555.886 631.987 555.557 632.827C555.247 633.667 554.827 634.397 554.297 635.018C553.768 635.621 553.147 636.123 552.435 636.524C551.741 636.926 551.001 637.246 550.216 637.483C549.449 637.72 548.664 637.885 547.861 637.976C547.057 638.086 546.3 638.14 545.588 638.14C544.182 638.14 542.958 638.022 541.917 637.784C540.877 637.547 539.982 637.237 539.233 636.853C538.485 636.451 537.864 636.004 537.371 635.511C536.896 635 536.522 634.47 536.248 633.923C535.974 633.375 535.782 632.836 535.673 632.307C535.563 631.759 535.509 631.257 535.509 630.8C535.509 629.705 535.81 628.901 536.412 628.39C537.033 627.879 537.973 627.623 539.233 627.623C540.146 627.623 540.895 627.87 541.479 628.363C542.064 628.856 542.374 629.65 542.41 630.745C542.429 631.111 542.529 631.403 542.712 631.622C542.913 631.841 543.159 632.024 543.451 632.17C543.762 632.297 544.099 632.389 544.465 632.444C544.83 632.48 545.186 632.498 545.533 632.498C546.245 632.498 546.82 632.316 547.258 631.951C547.715 631.567 547.943 631.074 547.943 630.472C547.943 629.96 547.788 629.486 547.477 629.047C547.185 628.591 546.793 628.171 546.3 627.787C545.807 627.404 545.241 627.039 544.602 626.692C543.981 626.327 543.342 625.962 542.684 625.596C541.863 625.158 541.032 624.693 540.192 624.2C539.37 623.707 538.622 623.159 537.946 622.556C537.271 621.954 536.723 621.278 536.303 620.529C535.883 619.763 535.673 618.895 535.673 617.928C535.673 616.503 535.901 615.316 536.358 614.367C536.832 613.399 537.517 612.623 538.412 612.039C539.306 611.436 540.393 611.007 541.671 610.752C542.967 610.496 544.437 610.35 546.081 610.313H546.519C547.998 610.313 549.249 610.441 550.271 610.697C551.312 610.953 552.17 611.29 552.846 611.71C553.539 612.112 554.078 612.568 554.461 613.08C554.863 613.591 555.155 614.111 555.338 614.641C555.539 615.152 555.657 615.645 555.694 616.12C555.749 616.595 555.776 616.996 555.776 617.325C555.776 617.873 555.657 618.329 555.42 618.694C555.201 619.041 554.9 619.324 554.516 619.543C554.151 619.744 553.731 619.89 553.256 619.982C552.782 620.055 552.289 620.1 551.777 620.119C551.339 620.119 550.937 620.046 550.572 619.899C550.225 619.753 549.924 619.571 549.668 619.352C549.413 619.133 549.212 618.886 549.066 618.612C548.938 618.338 548.874 618.074 548.874 617.818C548.838 617.124 548.555 616.595 548.025 616.229C547.514 615.864 546.884 615.682 546.135 615.682C545.825 615.682 545.524 615.718 545.231 615.791C544.958 615.846 544.702 615.956 544.465 616.12C544.246 616.266 544.063 616.467 543.917 616.722C543.789 616.978 543.725 617.307 543.725 617.708Z" fill="#8B4E14"/>
<defs>
<filter id="filter0_d" x="83.2889" y="0" width="579.194" height="569.743" filterUnits="userSpaceOnUse" color-interpolation-filters="sRGB">
<feFlood flood-opacity="0" result="BackgroundImageFix"/>
<feColorMatrix in="SourceAlpha" type="matrix" values="0 0 0 0 0 0 0 0 0 0 0 0 0 0 0 0 0 0 127 0" result="hardAlpha"/>
<feOffset dx="1" dy="1"/>
<feGaussianBlur stdDeviation="0.497905"/>
<feComposite in2="hardAlpha" operator="out"/>
<feColorMatrix type="matrix" values="0 0 0 0 0 0 0 0 0 0 0 0 0 0 0 0 0 0 0.76 0"/>
<feBlend mode="normal" in2="BackgroundImageFix" result="effect1_dropShadow"/>
<feBlend mode="normal" in="SourceGraphic" in2="effect1_dropShadow" result="shape"/>
</filter>
<filter id="filter1_f" x="280.718" y="259.265" width="16.9733" height="17.6228" filterUnits="userSpaceOnUse" color-interpolation-filters="sRGB">
<feFlood flood-opacity="0" result="BackgroundImageFix"/>
<feBlend mode="normal" in="SourceGraphic" in2="BackgroundImageFix" result="shape"/>
<feGaussianBlur stdDeviation="1.99162" result="effect1_foregroundBlur"/>
</filter>
</defs>
</svg>
